<svg width="24" height="24" viewBox="0 0 24 24" fill="none" xmlns="http://www.w3.org/2000/svg">
<path d="M18.1924 7.62102C18.583 8.01154 18.583 8.64471 18.1924 9.03523L11.1214 16.1063C10.7308 16.4968 10.0977 16.4968 9.70715 16.1063C9.31662 15.7158 9.31662 15.0826 9.70715 14.6921L16.7782 7.62102C17.1687 7.23049 17.8019 7.23049 18.1924 7.62102Z" fill="white"/>
<path d="M6.70708 11.8643C7.0976 11.4738 7.73077 11.4738 8.12129 11.8643L10.9497 14.6928C11.3402 15.0833 11.3402 15.7164 10.9497 16.107C10.5592 16.4975 9.92603 16.4975 9.53551 16.107L6.70708 13.2785C6.31655 12.888 6.31655 12.2549 6.70708 11.8643Z" fill="white"/>
</svg>
