<?xml version="1.0" standalone="no"?>
<!DOCTYPE svg PUBLIC "-//W3C//DTD SVG 20010904//EN"
 "http://www.w3.org/TR/2001/REC-SVG-20010904/DTD/svg10.dtd">
<svg version="1.0" xmlns="http://www.w3.org/2000/svg"
 width="96.000000pt" height="96.000000pt" viewBox="0 0 96.000000 96.000000"
 preserveAspectRatio="xMidYMid meet">

<g transform="translate(0.000000,96.000000) scale(0.100000,-0.100000)"
fill="#FFFFFF" stroke="none">
<path d="M116 844 c-24 -24 -22 -165 2 -187 28 -25 163 -24 185 1 25 28 24
163 -1 185 -26 23 -164 24 -186 1z m144 -94 l0 -50 -50 0 -50 0 0 50 0 50 50
0 50 0 0 -50z"/>
<path d="M384 765 c-4 -8 -4 -22 0 -30 5 -13 38 -15 238 -13 l233 3 0 25 0 25
-233 3 c-200 2 -233 0 -238 -13z"/>
<path d="M116 574 c-24 -24 -22 -165 2 -187 28 -25 163 -24 185 1 25 28 24
163 -1 185 -26 23 -164 24 -186 1z m144 -94 l0 -50 -50 0 -50 0 0 50 0 50 50
0 50 0 0 -50z"/>
<path d="M384 495 c-4 -8 -4 -22 0 -30 5 -13 38 -15 238 -13 l233 3 0 25 0 25
-233 3 c-200 2 -233 0 -238 -13z"/>
<path d="M116 304 c-24 -24 -22 -165 2 -187 28 -25 163 -24 185 1 25 28 24
163 -1 185 -26 23 -164 24 -186 1z m144 -94 l0 -50 -50 0 -50 0 0 50 0 50 50
0 50 0 0 -50z"/>
<path d="M384 225 c-4 -8 -4 -22 0 -30 5 -13 38 -15 238 -13 l233 3 0 25 0 25
-233 3 c-200 2 -233 0 -238 -13z"/>
</g>
</svg>
